<?xml version="1.0" standalone="no"?>
<!DOCTYPE svg PUBLIC "-//W3C//DTD SVG 20010904//EN"
 "http://www.w3.org/TR/2001/REC-SVG-20010904/DTD/svg10.dtd">
<svg version="1.0" xmlns="http://www.w3.org/2000/svg"
 width="141.000000pt" height="120.000000pt" viewBox="0 0 141.000000 120.000000"
 preserveAspectRatio="xMidYMid meet">

<g transform="translate(0.000000,120.000000) scale(0.100000,-0.100000)"
fill="#38485C" stroke="none">
<path d="M560 1171 c-84 -5 -105 -11 -180 -47 -219 -106 -333 -249 -368 -460
-14 -84 -14 -104 0 -187 9 -54 27 -117 44 -152 41 -86 139 -181 239 -232 145
-74 133 -73 652 -73 l463 0 0 95 0 95 -417 0 c-242 0 -445 5 -483 11 -130 20
-229 87 -271 182 -32 72 -39 223 -14 299 49 147 175 234 358 246 l77 5 0 -297
0 -296 88 0 87 0 130 173 130 172 3 -172 2 -173 100 0 100 0 0 395 0 395 -88
0 -89 0 -139 -220 c-76 -120 -142 -219 -146 -220 -5 0 -8 104 -8 230 l0 230
-67 0 c-38 0 -77 2 -88 4 -11 1 -63 0 -115 -3z m610 -656 c6 -14 15 -37 21
-52 l11 -28 20 53 c15 37 26 52 39 52 17 0 19 -8 19 -75 0 -59 -3 -75 -14 -75
-10 0 -16 14 -18 43 l-3 42 -14 -43 c-18 -55 -39 -52 -60 8 l-16 45 -3 -47
c-2 -34 -7 -48 -18 -48 -11 0 -14 16 -14 75 0 69 2 75 20 75 13 0 24 -10 30
-25z"/>
<path d="M475 811 c-115 -54 -169 -128 -169 -236 1 -107 54 -175 168 -215 69
-25 86 -25 86 -2 0 13 -17 25 -56 41 -102 43 -144 96 -144 185 0 68 48 131
132 176 101 53 86 99 -17 51z"/>
<path d="M560 699 c-64 -25 -108 -100 -96 -163 7 -37 47 -79 89 -95 63 -24 79
-5 18 22 -49 22 -71 46 -77 88 -7 45 23 92 76 119 59 30 51 53 -10 29z"/>
</g>
</svg>